<svg width="24" height="24" viewBox="0 0 24 24" fill="none" xmlns="http://www.w3.org/2000/svg">
<g clip-path="url(#clip0_16_56)">
<path d="M23.9934 19.9875C23.9934 21.0063 23.1939 23.985 19.1964 23.985C14.3994 23.985 13.5999 18.3885 8.40317 22.386C7.56022 23.0346 5.73786 24.1418 4.00592 23.985C1.94324 23.7981 0.00842285 22.8472 0.00842285 19.5877C0.00842285 15.3264 3.60617 15.5902 3.60617 11.9925C3.60617 9.59395 0.00842285 8.55262 0.00842285 5.9962C0.00842285 3.6 2.39956 3.99745 5.60492 3.99745C8.40322 3.9975 9.60247 0 12.0009 0C14.3994 0 15.9984 2.79825 15.5987 6.396C15.1989 9.99375 13.5999 12.3923 16.7979 13.1918C19.1675 13.7839 23.9934 15.1905 23.9934 19.9875Z" fill="#A65D2C"/>
<path d="M23.9934 19.9875C23.9934 21.0063 23.1939 23.985 19.1964 23.985C14.3994 23.985 13.5999 18.3885 8.40319 22.386C7.56024 23.0346 5.73788 24.1419 4.00594 23.985C1.94325 23.7981 0.00843956 22.8472 0.00843956 19.5877C0.00843956 15.3264 3.60619 15.5902 3.60619 11.9925C3.60619 9.4683 -0.375514 8.45055 0.0364239 5.578C0.40819 7.59522 5.20519 6.79572 6.00469 11.9925C6.67331 16.3386 4.00594 16.7895 4.80544 18.3885C6.40444 21.5865 10.4019 15.5902 15.5987 19.188C18.6289 21.2858 21.1952 23.5852 23.9934 19.9875Z" fill="#7A421D"/>
<path d="M23.9934 9.21076C23.9934 12.3994 20.1948 11.0913 19.1964 9.59401C17.6095 7.21337 19.1778 5.21326 20.7954 5.21326C22.3944 5.2133 23.9934 6.01276 23.9934 9.21076Z" fill="#A65D2C"/>
<path d="M23.9934 9.21063C23.9934 9.33954 23.9874 9.46146 23.975 9.57593C22.8127 9.62388 21.3556 8.83488 20.7955 7.99493C20.1189 6.97957 20.015 6.03917 20.2418 5.2916C20.4227 5.24013 20.6091 5.21313 20.7955 5.21313C22.3944 5.21318 23.9934 6.01263 23.9934 9.21063Z" fill="#D88E5D"/>
<path d="M11.2015 3.19796C11.2015 3.19796 13.6 2.79821 12.8005 5.19671C12.001 7.59521 9.2027 8.39471 9.60245 5.99621C10.0022 3.59771 10.8017 3.19796 11.2015 3.19796Z" fill="#D88E5D"/>
<path d="M12.8005 7.59521C12.8005 7.59521 11.6012 13.1917 13.6 13.9912C15.5987 14.7907 17.9972 15.99 17.9972 15.99C17.9972 15.99 11.2015 16.3897 10.8017 14.391C10.402 12.3922 11.6012 8.79446 12.8005 7.59521Z" fill="#D88E5D"/>
</g>
<defs>
<clipPath id="clip0_16_56">
<rect width="24" height="24" fill="white"/>
</clipPath>
</defs>
</svg>
