<svg xmlns="http://www.w3.org/2000/svg" width="24" height="24" viewBox="0 0 24 24" fill="none">
    <path fill-rule="evenodd" clip-rule="evenodd" d="M2.43597 6.18404C2 7.03969 2 8.15979 2 10.4V13.6C2 15.8402 2 16.9603 2.43597 17.816C2.81947 18.5686 3.43139 19.1805 4.18404 19.564C5.03969 20 6.15979 20 8.4 20H15.6C17.8402 20 18.9603 20 19.816 19.564C20.5686 19.1805 21.1805 18.5686 21.564 17.816C22 16.9603 22 15.8402 22 13.6V10.4C22 8.15979 22 7.03969 21.564 6.18404C21.1805 5.43139 20.5686 4.81947 19.816 4.43597C18.9603 4 17.8402 4 15.6 4H8.4C6.15979 4 5.03969 4 4.18404 4.43597C3.43139 4.81947 2.81947 5.43139 2.43597 6.18404ZM14.5163 12.5028C14.8945 12.2771 14.8945 11.7229 14.5163 11.4972L10.4681 9.0816C10.0842 8.85252 9.59998 9.13298 9.59998 9.58442V14.4156C9.59998 14.867 10.0842 15.1475 10.4681 14.9184L14.5163 12.5028ZM4 7.5C4 7.22386 4.22386 7 4.5 7H5.5C5.77614 7 6 7.22386 6 7.5V8.5C6 8.77614 5.77614 9 5.5 9H4.5C4.22386 9 4 8.77614 4 8.5V7.5ZM18.5 7C18.2239 7 18 7.22386 18 7.5V8.5C18 8.77614 18.2239 9 18.5 9H19.5C19.7761 9 20 8.77614 20 8.5V7.5C20 7.22386 19.7761 7 19.5 7H18.5ZM4 11.5C4 11.2239 4.22386 11 4.5 11H5.5C5.77614 11 6 11.2239 6 11.5V12.5C6 12.7761 5.77614 13 5.5 13H4.5C4.22386 13 4 12.7761 4 12.5V11.5ZM18.5 11C18.2239 11 18 11.2239 18 11.5V12.5C18 12.7761 18.2239 13 18.5 13H19.5C19.7761 13 20 12.7761 20 12.5V11.5C20 11.2239 19.7761 11 19.5 11H18.5ZM4 15.5C4 15.2239 4.22386 15 4.5 15H5.5C5.77614 15 6 15.2239 6 15.5V16.5C6 16.7761 5.77614 17 5.5 17H4.5C4.22386 17 4 16.7761 4 16.5V15.5ZM18.5 15C18.2239 15 18 15.2239 18 15.5V16.5C18 16.7761 18.2239 17 18.5 17H19.5C19.7761 17 20 16.7761 20 16.5V15.5C20 15.2239 19.7761 15 19.5 15H18.5Z" fill="url(#paint0_radial_12_40)"/>
    <defs>
        <radialGradient id="paint0_radial_12_40" cx="0" cy="0" r="1" gradientUnits="userSpaceOnUse" gradientTransform="translate(12 6.54545) rotate(90) scale(12 15)">
            <stop stop-color="#4DD0FB"/>
            <stop offset="1" stop-color="#1579E3"/>
        </radialGradient>
    </defs>
</svg>