<svg width="24" height="24" viewBox="0 0 24 24" fill="none" xmlns="http://www.w3.org/2000/svg">
<g clip-path="url(#clip0_48_53)">
<path d="M23.9934 19.9875C23.9934 21.0063 23.1939 23.985 19.1964 23.985C14.3994 23.985 13.5999 18.3885 8.40317 22.386C7.56022 23.0346 5.73786 24.1418 4.00592 23.985C1.94324 23.7981 0.00842285 22.8472 0.00842285 19.5877C0.00842285 15.3264 3.60617 15.5902 3.60617 11.9925C3.60617 9.59395 0.00842285 8.55262 0.00842285 5.9962C0.00842285 3.6 2.39956 3.99745 5.60492 3.99745C8.40322 3.9975 9.60247 0 12.0009 0C14.3994 0 15.9984 2.79825 15.5987 6.396C15.1989 9.99375 13.5999 12.3923 16.7979 13.1918C19.1675 13.7839 23.9934 15.1905 23.9934 19.9875Z" fill="#A65D2C"/>
<path d="M23.9934 19.9874C23.9934 21.0063 23.1939 23.9849 19.1964 23.9849C14.3994 23.9849 13.5999 18.3884 8.40313 22.3859C7.56018 23.0345 5.73782 24.1418 4.00588 23.9849C1.94319 23.798 0.00837853 22.8471 0.00837853 19.5877C0.00837853 15.3264 3.60613 15.5902 3.60613 11.9924C3.60613 9.46827 -0.375575 8.45052 0.0363629 5.57797C0.408129 7.59519 5.20513 6.79569 6.00463 11.9924C6.67325 16.3386 4.00588 16.7894 4.80538 18.3884C6.40438 21.5864 10.4019 15.5902 15.5986 19.1879C18.6288 21.2858 21.1951 23.5852 23.9934 19.9874Z" fill="#7A421D"/>
<path d="M23.9934 9.2107C23.9934 12.3993 20.1948 11.0913 19.1964 9.59395C17.6095 7.21331 19.1778 5.2132 20.7954 5.2132C22.3944 5.21324 23.9934 6.0127 23.9934 9.2107Z" fill="#A65D2C"/>
<path d="M23.9934 9.2107C23.9934 9.3396 23.9874 9.46152 23.975 9.57599C22.8127 9.62395 21.3556 8.83495 20.7955 7.99499C20.1189 6.97963 20.015 6.03923 20.2418 5.29166C20.4227 5.2402 20.6091 5.2132 20.7955 5.2132C22.3944 5.21324 23.9934 6.0127 23.9934 9.2107Z" fill="#D88E5D"/>
<path d="M11.2015 3.19799C11.2015 3.19799 13.6 2.79824 12.8005 5.19674C12.001 7.59524 9.2027 8.39474 9.60245 5.99624C10.0022 3.59774 10.8017 3.19799 11.2015 3.19799Z" fill="#D88E5D"/>
<path d="M12.8004 7.59525C12.8004 7.59525 11.6012 13.1917 13.5999 13.9912C15.5987 14.7907 17.9972 15.99 17.9972 15.99C17.9972 15.99 11.2014 16.3897 10.8017 14.391C10.4019 12.3922 11.6012 8.7945 12.8004 7.59525Z" fill="#D88E5D"/>
</g>
<defs>
<clipPath id="clip0_48_53">
<rect width="24" height="24" fill="white"/>
</clipPath>
</defs>
</svg>
