<svg width="24" height="24" viewBox="0 0 24 24" fill="none" xmlns="http://www.w3.org/2000/svg">
<g clip-path="url(#clip0_48_320)">
<path d="M16.9688 0H7.03125C3.148 0 0 3.148 0 7.03125V16.9688C0 20.852 3.148 24 7.03125 24H16.9688C20.852 24 24 20.852 24 16.9688V7.03125C24 3.148 20.852 0 16.9688 0Z" fill="url(#paint0_linear_48_320)"/>
<path opacity="0.15" d="M18.9506 10.6744L24 15.7238V16.9692C24 18.1453 23.7108 19.2534 23.2003 20.2275L16.2989 13.3261L18.9506 10.6744ZM13.3256 10.6744L10.6739 13.3261L20.4351 23.0873C21.5405 22.4597 22.4592 21.5409 23.0869 20.4356L13.3256 10.6744ZM7.70061 10.6744L5.04889 13.3261L15.7233 24.0005H16.9687C18.1448 24.0005 19.253 23.7113 20.227 23.2008L7.70061 10.6744Z" fill="url(#paint1_linear_48_320)"/>
<path d="M17.625 13.875C18.6605 13.875 19.5 13.0355 19.5 12C19.5 10.9645 18.6605 10.125 17.625 10.125C16.5895 10.125 15.75 10.9645 15.75 12C15.75 13.0355 16.5895 13.875 17.625 13.875Z" fill="white"/>
<path d="M12 13.875C13.0355 13.875 13.875 13.0355 13.875 12C13.875 10.9645 13.0355 10.125 12 10.125C10.9645 10.125 10.125 10.9645 10.125 12C10.125 13.0355 10.9645 13.875 12 13.875Z" fill="white"/>
<path d="M6.375 13.875C7.41053 13.875 8.25 13.0355 8.25 12C8.25 10.9645 7.41053 10.125 6.375 10.125C5.33947 10.125 4.5 10.9645 4.5 12C4.5 13.0355 5.33947 13.875 6.375 13.875Z" fill="white"/>
</g>
<defs>
<linearGradient id="paint0_linear_48_320" x1="2.05922" y1="2.05922" x2="21.9408" y2="21.9408" gradientUnits="userSpaceOnUse">
<stop stop-color="#42BEF6"/>
<stop offset="1" stop-color="#1579E4"/>
</linearGradient>
<linearGradient id="paint1_linear_48_320" x1="9.18748" y1="9.1875" x2="21.9403" y2="21.9403" gradientUnits="userSpaceOnUse">
<stop stop-opacity="0.5"/>
<stop offset="1" stop-opacity="0"/>
</linearGradient>
<clipPath id="clip0_48_320">
<rect width="24" height="24" fill="white"/>
</clipPath>
</defs>
</svg>
