<svg width="24" height="24" viewBox="0 0 24 24" fill="none" xmlns="http://www.w3.org/2000/svg">
<g clip-path="url(#clip0_48_93)">
<path d="M1.98998 18.1476H22.0102C22.9485 16.4835 23.4846 14.5622 23.4846 12.5155C23.4846 6.17283 18.3428 1.03107 12.0001 1.03107C5.65739 1.03107 0.515625 6.17283 0.515625 12.5155C0.515578 14.5622 1.05159 16.4835 1.98998 18.1476Z" fill="#FFC839"/>
<path d="M11.0057 16.1633C11.0057 16.1633 11.7018 16.4687 12 16.9067C12.2981 16.4687 12.9942 16.1633 12.9942 16.1633L15.7968 14.7379C15.5618 14.6653 15.3226 14.6004 15.0782 14.544C14.6023 14.0681 14.4816 13.1659 14.4599 12.5347C14.2116 12.824 13.9509 13.0659 13.7019 13.2593C13.2167 13.6361 12.6179 13.8408 12.0012 13.8408C11.3845 13.8408 10.7857 13.6361 10.3005 13.2593C10.0515 13.0659 9.79084 12.8239 9.54245 12.5347C9.52075 13.1659 9.40009 14.0681 8.92421 14.544C8.6792 14.6005 8.43957 14.6656 8.20398 14.7383L11.0057 16.1633Z" fill="#FFAA7B"/>
<path d="M11.8848 13.8383C11.3095 13.8142 10.7551 13.6123 10.3005 13.2593C10.0515 13.0659 9.79082 12.8239 9.54247 12.5346C9.52358 13.0837 9.42955 13.8375 9.09229 14.3377C9.57196 15.3058 10.1935 16.1159 10.8221 15.6922C11.5972 15.1697 11.8272 14.393 11.8848 13.8383Z" fill="#FC9460"/>
<path d="M11.1044 16.0147L9.86093 15.3823C9.33181 15.5432 8.60928 15.9633 8.58378 17.06C8.22645 17.1219 6.42725 17.5177 6.42725 19.1986V22.5587C8.07757 23.4767 9.97756 24 12.0001 24C12.0402 24 12.08 23.9989 12.1201 23.9985C12.1201 21.4393 12.1201 17.4165 12.1201 17.0304C12.1201 16.4601 11.1044 16.0147 11.1044 16.0147Z" fill="#7E6DD1"/>
<path d="M6.49751 22.5973C6.49751 21.7165 6.49751 20.332 6.49751 19.1986C6.49751 17.3826 8.65334 17.1203 8.65334 17.1203C8.65334 15.9673 9.42757 15.5665 9.94915 15.4272L8.45046 14.6649C5.24154 15.7113 3.70892 16.1297 2.90979 16.7002C3.74173 17.2679 5.0501 18.4474 5.0501 20.252V21.6584C5.50685 22.0062 5.99074 22.3201 6.49751 22.5973Z" fill="#7255CE"/>
<path d="M15.5496 14.6649L12.8956 16.0147C12.8956 16.0147 11.88 16.4601 11.88 17.0304V23.9985C11.92 23.9989 11.9599 24 12 24C12.5387 24 13.0686 23.9623 13.5875 23.8905L13.5872 23.8903L16.8582 22.9239V22.924C17.6023 22.576 18.3031 22.1509 18.9499 21.6584C18.9499 21.1693 18.9499 20.6922 18.9499 20.252C18.9499 18.4474 20.2583 17.268 21.0902 16.7002C20.2912 16.1297 18.7586 15.7113 15.5496 14.6649Z" fill="#9589E8"/>
<path d="M14.729 13.459C14.675 13.4292 14.6079 13.4603 14.5957 13.5207C14.5155 13.9135 14.1675 15.151 12.8752 15.8854C12.7479 15.9577 12.7174 16.1275 12.8137 16.2378L14.1195 17.7334C14.3906 18.0457 14.8898 17.9895 15.0855 17.6252C15.4163 17.0093 15.8773 16.0718 16.2184 15.0639C16.2795 14.8834 16.2361 14.6839 16.1073 14.5434C15.7102 14.1102 15.2448 13.7437 14.729 13.459Z" fill="#B5B0F7"/>
<path d="M11.1256 15.8855C10.8147 15.7087 10.5589 15.5028 10.3479 15.2866C10.0334 15.3133 8.66581 15.515 8.58752 16.9874C8.70401 17.2245 8.81557 17.4397 8.91527 17.6253C9.11098 17.9896 9.61015 18.0458 9.88127 17.7335L11.1871 16.2379C11.2834 16.1276 11.2528 15.9577 11.1256 15.8855Z" fill="#9589E8"/>
<path d="M9.40516 13.5208C9.39283 13.4604 9.32575 13.4292 9.27185 13.459C8.75603 13.7437 8.29066 14.1102 7.89349 14.5435C7.76477 14.6839 7.72132 14.8835 7.78239 15.0639C8.0403 15.8259 8.36655 16.5473 8.65338 17.1202C8.65343 15.3821 10.4137 15.3528 10.4137 15.3528L10.4138 15.3526C9.69569 14.6557 9.46802 13.8287 9.40516 13.5208Z" fill="#7E6DD1"/>
<path d="M18.8562 21.7295C20.1413 20.7716 21.2187 19.5511 22.0101 18.1476C21.9217 17.8846 21.826 17.6433 21.722 17.4314C21.5723 17.1261 21.3645 16.8866 21.044 16.6678C20.2154 17.2226 18.8562 18.4129 18.8562 20.2519V21.7295Z" fill="#B5B0F7"/>
<path d="M2.95592 16.6678C2.63543 16.8867 2.42759 17.1261 2.27792 17.4314C2.17404 17.6433 2.07832 17.8846 1.98987 18.1476C2.78121 19.5511 3.85863 20.7717 5.14376 21.7295C5.14376 21.2154 5.14376 20.7135 5.14376 20.2519C5.14381 18.4129 3.78452 17.2226 2.95592 16.6678Z" fill="#7E6DD1"/>
<path d="M16.2958 19.7168H14.1161C13.8067 19.7168 13.5536 19.9699 13.5536 20.2793V23.7012C13.5536 23.7675 13.5658 23.8311 13.5872 23.8903C14.7413 23.7308 15.8404 23.3999 16.8583 22.9239V20.2793C16.8583 19.9699 16.6052 19.7168 16.2958 19.7168Z" fill="#B5B0F7"/>
<path d="M19.8509 4.13464C18.7606 4.94061 17.404 6.29933 17.9791 8.00169C18.8697 10.6381 14.8385 12.3007 19.3385 14.2116C21.1377 14.9757 22.1832 15.7728 22.7906 16.4546C23.2393 15.226 23.4845 13.8995 23.4845 12.5155C23.4844 9.20938 22.0869 6.23005 19.8509 4.13464Z" fill="#FFDD40"/>
<path d="M4.14907 4.13464C5.23938 4.94061 6.59599 6.29933 6.02088 8.00169C5.13025 10.6381 9.1615 12.3007 4.6615 14.2116C2.86225 14.9757 1.81675 15.7728 1.20939 16.4546C0.760706 15.226 0.515503 13.8995 0.515503 12.5155C0.51555 9.20938 1.91313 6.23005 4.14907 4.13464Z" fill="#FFDD40"/>
<path d="M7.72839 7.38168H16.3192C16.3345 6.7627 16.4377 5.12432 17.0846 3.95723C17.1746 3.7949 17.1906 3.60206 17.128 3.42735C16.8933 2.77288 16.1921 1.24288 14.6629 0.834791C14.5815 0.813041 14.56 0.707666 14.6262 0.655588L14.8554 0.475541C14.9593 0.393885 14.9194 0.228041 14.7896 0.203057C13.6614 -0.0145369 9.91446 -0.535224 8.75055 1.85807C8.68108 2.0009 8.55016 2.10374 8.39641 2.14354C8.05774 2.2312 7.4486 2.49538 7.05157 3.28706C6.97389 3.44188 6.96068 3.62146 7.01632 3.78548C7.20925 4.35412 7.67936 5.88103 7.72839 7.38168Z" fill="#56415E"/>
<path d="M11.5724 3.59867C10.2003 1.50762 12.6003 0.000823975 12.6003 0.000823975C11.1448 0.0196677 9.46333 0.392418 8.75055 1.85806C8.68108 2.00089 8.55016 2.10373 8.39641 2.14353C8.05774 2.23118 7.4486 2.49537 7.05157 3.28704C6.97389 3.44187 6.96068 3.62145 7.01632 3.78546C7.20925 4.35411 7.67936 5.88101 7.72839 7.38167H9.72808C10.9937 6.35646 12.3877 4.84123 11.5724 3.59867Z" fill="#45304C"/>
<path d="M16.6527 7.13131C16.4604 6.95506 16.0304 7.0444 15.8648 7.15231C15.901 7.37829 15.9031 7.60948 15.8718 7.83776L15.6763 9.26145C15.6763 9.3762 15.6727 9.48879 15.666 9.59942C16.1427 9.74318 16.4263 9.31526 16.4662 9.02159C16.4834 8.89517 16.5115 8.77057 16.5504 8.64898C16.6772 8.25307 17.1346 7.57292 16.6527 7.13131Z" fill="#FFAA7B"/>
<path d="M7.34742 7.13131C7.53975 6.95506 7.96973 7.0444 8.13539 7.15231C8.09911 7.37829 8.09705 7.60948 8.12841 7.83776L8.32387 9.26145C8.32387 9.3762 8.32748 9.48879 8.33414 9.59942C7.85747 9.74318 7.57383 9.31526 7.53394 9.02159C7.51678 8.89517 7.4887 8.77057 7.44975 8.64898C7.32295 8.25307 6.86555 7.57292 7.34742 7.13131Z" fill="#FC9460"/>
<path d="M15.794 6.71249C15.75 6.5977 15.6945 6.48145 15.6246 6.37181C15.5062 6.18609 15.4542 5.96643 15.4701 5.74743C15.5157 5.11753 15.4912 3.88551 14.6643 3.51342C13.9618 3.19729 13.1 3.38034 12.5504 3.56306C12.2067 3.67739 11.8353 3.68128 11.4895 3.57539C10.8634 4.05595 10.8487 5.13796 10.891 5.7141C10.9072 5.93432 10.853 6.15459 10.734 6.34134C10.6654 6.44896 10.6105 6.56287 10.5666 6.6756C10.4242 7.04132 10.3827 7.43798 10.4361 7.82639L10.6342 9.26925C10.6342 11.3436 11.7414 12.7535 12.6833 13.4849C12.8223 13.5929 12.9711 13.6857 13.1264 13.765C13.3299 13.6747 13.523 13.5601 13.7007 13.422C14.6303 12.7002 15.7231 11.3087 15.7231 9.26146L15.9186 7.83778C15.9707 7.45823 15.9312 7.07062 15.794 6.71249Z" fill="#FFC7AB"/>
<path d="M12.6899 13.422C11.7603 12.7002 10.6675 11.3087 10.6675 9.26145L10.472 7.83743C10.4194 7.45414 10.4604 7.06264 10.6008 6.7017C10.6441 6.59042 10.6983 6.47801 10.766 6.37179C10.8835 6.18748 10.937 5.97012 10.921 5.75276C10.8779 5.16607 10.8947 4.04797 11.5723 3.59862C11.5311 3.58822 11.4902 3.5765 11.4496 3.563C10.9 3.38028 10.0383 3.19723 9.33577 3.51336C8.50646 3.88648 8.48424 5.1245 8.53041 5.75276C8.5464 5.97012 8.49287 6.18748 8.3754 6.37179C8.30771 6.47801 8.25352 6.59042 8.21021 6.7017C8.06973 7.06264 8.02876 7.45414 8.0814 7.83743L8.27691 9.26145C8.27691 11.3087 9.36976 12.7002 10.2993 13.422C10.7845 13.7988 11.3833 14.0035 12 14.0035C12.4164 14.0035 12.8246 13.9098 13.1953 13.7331C13.0171 13.6482 12.8475 13.5444 12.6899 13.422Z" fill="#FFAA7B"/>
</g>
<defs>
<clipPath id="clip0_48_93">
<rect width="24" height="24" fill="white"/>
</clipPath>
</defs>
</svg>
