<svg xmlns="http://www.w3.org/2000/svg" width="28" height="28" viewBox="0 0 28 28" fill="none">
    <rect width="28" height="28" rx="8" fill="url(#paint0_radial_50_6991)"/>
    <path d="M17 9C20.5 9 21 13.5 21 15.5C21 17 20.5 18 19.5 18C18 18 18.25 15.5 16 15.5H12C9.75 15.5 9.99155 18 8.5 18C7.5 18 7 17 7 15.5C7 13.5 7.5 9 11 9H17ZM10.5307 10.75H10.4693C10.3324 10.75 10.2373 10.7732 10.1558 10.8168C10.0743 10.8604 10.0104 10.9243 9.96678 11.0058C9.92321 11.0873 9.9 11.1824 9.9 11.3193V11.9H9.31933C9.21665 11.9 9.13745 11.9131 9.0699 11.938L9.00579 11.9668C8.92431 12.0104 8.86036 12.0743 8.81678 12.1558C8.77321 12.2373 8.75 12.3324 8.75 12.4693V12.5307C8.75 12.6676 8.77321 12.7627 8.81678 12.8442C8.86036 12.9257 8.92431 12.9896 9.00579 13.0332C9.08727 13.0768 9.18242 13.1 9.31933 13.1H9.9V13.6807C9.9 13.7834 9.91305 13.8625 9.93796 13.9301L9.96678 13.9942C10.0104 14.0757 10.0743 14.1396 10.1558 14.1832C10.2373 14.2268 10.3324 14.25 10.4693 14.25H10.5307C10.6676 14.25 10.7627 14.2268 10.8442 14.1832C10.9257 14.1396 10.9896 14.0757 11.0332 13.9942C11.0768 13.9127 11.1 13.8176 11.1 13.6807V13.1H11.6807C11.7834 13.1 11.8625 13.0869 11.9301 13.062L11.9942 13.0332C12.0757 12.9896 12.1396 12.9257 12.1832 12.8442C12.2268 12.7627 12.25 12.6676 12.25 12.5307V12.4693C12.25 12.3324 12.2268 12.2373 12.1832 12.1558C12.1396 12.0743 12.0757 12.0104 11.9942 11.9668C11.9127 11.9232 11.8176 11.9 11.6807 11.9H11.1V11.3193C11.1 11.2166 11.0869 11.1375 11.062 11.0699L11.0332 11.0058C10.9896 10.9243 10.9257 10.8604 10.8442 10.8168C10.7627 10.7732 10.6676 10.75 10.5307 10.75ZM17.9307 11.9H16.5693C16.4324 11.9 16.3373 11.9232 16.2558 11.9668C16.1743 12.0104 16.1104 12.0743 16.0668 12.1558C16.0232 12.2373 16 12.3324 16 12.4693V12.5307C16 12.6676 16.0232 12.7627 16.0668 12.8442C16.1104 12.9257 16.1743 12.9896 16.2558 13.0332C16.3373 13.0768 16.4324 13.1 16.5693 13.1H17.9307C18.0676 13.1 18.1627 13.0768 18.2442 13.0332C18.3257 12.9896 18.3896 12.9257 18.4332 12.8442C18.4768 12.7627 18.5 12.6676 18.5 12.5307V12.4693C18.5 12.3324 18.4768 12.2373 18.4332 12.1558C18.3896 12.0743 18.3257 12.0104 18.2442 11.9668C18.1627 11.9232 18.0676 11.9 17.9307 11.9Z" fill="white"/>
    <defs>
        <radialGradient id="paint0_radial_50_6991" cx="0" cy="0" r="1" gradientUnits="userSpaceOnUse" gradientTransform="translate(14 4.45455) rotate(90) scale(21)">
            <stop stop-color="#4DD0FB"/>
            <stop offset="1" stop-color="#1579E3"/>
        </radialGradient>
    </defs>
</svg>