<svg xmlns="http://www.w3.org/2000/svg" width="28" height="28" viewBox="0 0 28 28" fill="none">
    <rect width="28" height="28" rx="8" fill="url(#paint0_linear_50_6970)"/>
    <path d="M10.5 15C12.75 15 15 15.9 15 17.8462V17.9804C15 18.2752 14.9605 18.4266 14.8865 18.5652C14.8124 18.7037 14.7037 18.8124 14.5652 18.8865C14.4266 18.9605 14.2752 19 13.9804 19H7.01959C6.72477 19 6.57336 18.9605 6.43484 18.8865C6.29632 18.8124 6.18761 18.7037 6.11353 18.5652C6.03945 18.4266 6 18.2752 6 17.9804V17.8462C6 15.9 8.25 15 10.5 15ZM17.5 15C19.75 15 22 15.9 22 17.8462V17.9804C22 18.2752 21.9605 18.4266 21.8865 18.5652C21.8124 18.7037 21.7037 18.8124 21.5652 18.8865C21.4266 18.9605 21.2752 19 20.9804 19L16.5997 19.0006C16.6842 18.7523 16.7297 18.4923 16.7445 18.2031L16.75 17.9804V17.8462C16.75 16.7774 16.3923 15.8888 15.7789 15.1871C16.3255 15.0613 16.9127 15 17.5 15ZM10.5 9C11.7426 9 12.75 10.0074 12.75 11.25C12.75 12.4926 11.7426 13.5 10.5 13.5C9.25736 13.5 8.25 12.4926 8.25 11.25C8.25 10.0074 9.25736 9 10.5 9ZM17.5 9C18.7426 9 19.75 10.0074 19.75 11.25C19.75 12.4926 18.7426 13.5 17.5 13.5C16.2574 13.5 15.25 12.4926 15.25 11.25C15.25 10.0074 16.2574 9 17.5 9Z" fill="white"/>
    <defs>
        <linearGradient id="paint0_linear_50_6970" x1="14" y1="0" x2="14" y2="28" gradientUnits="userSpaceOnUse">
            <stop stop-color="#86B6FF"/>
            <stop offset="1" stop-color="#2869CB"/>
        </linearGradient>
    </defs>
</svg>