<svg xmlns="http://www.w3.org/2000/svg" width="28" height="28" viewBox="0 0 28 28" fill="none">
    <rect width="28" height="28" rx="8" fill="url(#paint0_linear_224_183)"/>
    <path d="M15.5141 18.7838C15.3778 19.4765 14.7517 20 14 20C13.2483 20 12.6222 19.4765 12.4859 18.7838H15.5141ZM10.25 17.5676C9.41667 17.5676 9 17.2973 9 16.7568C9 15.9459 10.25 15.9459 10.25 14.7297V12.2973C10.25 10.5035 11.5805 9.01199 13.3337 8.70608L13.3333 8.64865C13.3333 8.29041 13.6318 8 14 8C14.3682 8 14.6667 8.29041 14.6667 8.64865L14.6672 8.70622C16.42 9.01246 17.75 10.5038 17.75 12.2973V14.7297C17.75 15.9459 19 15.9459 19 16.7568C19 17.2973 18.5833 17.5676 17.75 17.5676H10.25Z" fill="white"/>
    <defs>
        <linearGradient id="paint0_linear_224_183" x1="14" y1="0" x2="14" y2="28" gradientUnits="userSpaceOnUse">
            <stop stop-color="#FDD43E"/>
            <stop offset="1" stop-color="#E98A1A"/>
        </linearGradient>
    </defs>
</svg>