<svg xmlns="http://www.w3.org/2000/svg" width="28" height="28" viewBox="0 0 28 28" fill="none">
    <rect width="28" height="28" rx="8" fill="url(#paint0_linear_50_7004)"/>
    <path d="M19.8693 12.17C19.4588 12.3809 18.9933 12.5 18.5 12.5C16.8431 12.5 15.5 11.1569 15.5 9.5C15.5 9.04817 15.5999 8.61968 15.7788 8.23539C15.2167 8.0824 14.6193 8 14 8C10.6863 8 8 10.3589 8 13.2687C8 14.6754 8.62781 15.9534 9.65342 16.8989C9.5606 17.4766 9.42485 18.0404 9.24948 18.5869C9.19381 18.7604 9.11892 18.9626 9.0248 19.1934C8.96224 19.3469 8.96842 19.5191 9.04184 19.6678C9.18616 19.9603 9.54499 20.0826 9.84331 19.9412L10.0017 19.8647C10.1539 19.7898 10.2878 19.7196 10.4032 19.6541C11.0797 19.2704 11.7145 18.8237 12.2984 18.3225C12.8378 18.4624 13.4089 18.5374 14 18.5374C17.3137 18.5374 20 16.1785 20 13.2687C20 12.8919 19.955 12.5244 19.8693 12.17Z" fill="white"/>
    <path d="M20 9.5C20 10.3284 19.3284 11 18.5 11C17.6716 11 17 10.3284 17 9.5C17 8.67157 17.6716 8 18.5 8C19.3284 8 20 8.67157 20 9.5Z" fill="white"/>
    <defs>
        <linearGradient id="paint0_linear_50_7004" x1="14" y1="0" x2="14" y2="28" gradientUnits="userSpaceOnUse">
            <stop stop-color="#9DDC4D"/>
            <stop offset="1" stop-color="#409717"/>
        </linearGradient>
    </defs>
</svg>